<?xml version="1.0" encoding="UTF-8" standalone="no"?>
<!DOCTYPE svg PUBLIC "-//W3C//DTD SVG 1.1//EN"
 "http://www.w3.org/Graphics/SVG/1.1/DTD/svg11.dtd">
<!-- Generated by graphviz version 2.40.1 (20161225.0304)
 -->
<!-- Title: controllers_diagram Pages: 1 -->
<svg width="366pt" height="387pt"
 viewBox="0.00 0.00 366.00 387.00" xmlns="http://www.w3.org/2000/svg" xmlns:xlink="http://www.w3.org/1999/xlink">
<g id="graph0" class="graph" transform="scale(1 1) rotate(0) translate(4 383)">
<title>controllers_diagram</title>
<polygon fill="transparent" stroke="transparent" points="-4,4 -4,-383 362,-383 362,4 -4,4"/>
<!-- _diagram_info -->
<g id="node1" class="node">
<title>_diagram_info</title>
<text text-anchor="start" x="152" y="-95.6" font-family="Times,serif" font-size="13.00" fill="#000000">Controllers diagram</text>
<text text-anchor="start" x="152" y="-81.6" font-family="Times,serif" font-size="13.00" fill="#000000">Date: Feb 08 2019 &#45; 20:17</text>
<text text-anchor="start" x="152" y="-67.6" font-family="Times,serif" font-size="13.00" fill="#000000">Migration version: 20190203204103</text>
<text text-anchor="start" x="152" y="-53.6" font-family="Times,serif" font-size="13.00" fill="#000000">Generated by RailRoady 1.5.3</text>
<text text-anchor="start" x="152" y="-39.6" font-family="Times,serif" font-size="13.00" fill="#000000">http://railroady.prestonlee.com</text>
</g>
<!-- ApplicationController -->
<g id="node2" class="node">
<title>ApplicationController</title>
<path fill="none" stroke="#000000" d="M156,-144.5C156,-144.5 326,-144.5 326,-144.5 332,-144.5 338,-150.5 338,-156.5 338,-156.5 338,-225.5 338,-225.5 338,-231.5 332,-237.5 326,-237.5 326,-237.5 156,-237.5 156,-237.5 150,-237.5 144,-231.5 144,-225.5 144,-225.5 144,-156.5 144,-156.5 144,-150.5 150,-144.5 156,-144.5"/>
<text text-anchor="middle" x="241" y="-222.3" font-family="Times,serif" font-size="14.00" fill="#000000">ApplicationController</text>
<polyline fill="none" stroke="#000000" points="144,-214.5 338,-214.5 "/>
<polyline fill="none" stroke="#000000" points="144,-190.5 338,-190.5 "/>
<text text-anchor="start" x="152" y="-175.3" font-family="Times,serif" font-size="14.00" fill="#000000">configure_permitted_parameters</text>
<polyline fill="none" stroke="#000000" points="144,-167.5 338,-167.5 "/>
<text text-anchor="start" x="152" y="-152.3" font-family="Times,serif" font-size="14.00" fill="#000000">_layout</text>
</g>
<!-- TasksController -->
<g id="node3" class="node">
<title>TasksController</title>
<path fill="none" stroke="#000000" d="M12,-.5C12,-.5 92,-.5 92,-.5 98,-.5 104,-6.5 104,-12.5 104,-12.5 104,-201.5 104,-201.5 104,-207.5 98,-213.5 92,-213.5 92,-213.5 12,-213.5 12,-213.5 6,-213.5 0,-207.5 0,-201.5 0,-201.5 0,-12.5 0,-12.5 0,-6.5 6,-.5 12,-.5"/>
<text text-anchor="middle" x="52" y="-198.3" font-family="Times,serif" font-size="14.00" fill="#000000">TasksController</text>
<polyline fill="none" stroke="#000000" points="0,-190.5 104,-190.5 "/>
<text text-anchor="start" x="8" y="-175.3" font-family="Times,serif" font-size="14.00" fill="#000000">create</text>
<text text-anchor="start" x="8" y="-160.3" font-family="Times,serif" font-size="14.00" fill="#000000">destroy</text>
<text text-anchor="start" x="8" y="-145.3" font-family="Times,serif" font-size="14.00" fill="#000000">edit</text>
<text text-anchor="start" x="8" y="-130.3" font-family="Times,serif" font-size="14.00" fill="#000000">index</text>
<text text-anchor="start" x="8" y="-115.3" font-family="Times,serif" font-size="14.00" fill="#000000">new</text>
<text text-anchor="start" x="8" y="-100.3" font-family="Times,serif" font-size="14.00" fill="#000000">ranking</text>
<text text-anchor="start" x="8" y="-85.3" font-family="Times,serif" font-size="14.00" fill="#000000">update</text>
<polyline fill="none" stroke="#000000" points="0,-77.5 104,-77.5 "/>
<polyline fill="none" stroke="#000000" points="0,-53.5 104,-53.5 "/>
<text text-anchor="start" x="8" y="-38.3" font-family="Times,serif" font-size="14.00" fill="#000000">_layout</text>
<text text-anchor="start" x="8" y="-23.3" font-family="Times,serif" font-size="14.00" fill="#000000">set_task</text>
<text text-anchor="start" x="8" y="-8.3" font-family="Times,serif" font-size="14.00" fill="#000000">task_params</text>
</g>
<!-- TodosController -->
<g id="node4" class="node">
<title>TodosController</title>
<path fill="none" stroke="#000000" d="M12,-240.5C12,-240.5 94,-240.5 94,-240.5 100,-240.5 106,-246.5 106,-252.5 106,-252.5 106,-366.5 106,-366.5 106,-372.5 100,-378.5 94,-378.5 94,-378.5 12,-378.5 12,-378.5 6,-378.5 0,-372.5 0,-366.5 0,-366.5 0,-252.5 0,-252.5 0,-246.5 6,-240.5 12,-240.5"/>
<text text-anchor="middle" x="53" y="-363.3" font-family="Times,serif" font-size="14.00" fill="#000000">TodosController</text>
<polyline fill="none" stroke="#000000" points="0,-355.5 106,-355.5 "/>
<text text-anchor="start" x="8" y="-340.3" font-family="Times,serif" font-size="14.00" fill="#000000">create</text>
<text text-anchor="start" x="8" y="-325.3" font-family="Times,serif" font-size="14.00" fill="#000000">profile</text>
<polyline fill="none" stroke="#000000" points="0,-317.5 106,-317.5 "/>
<polyline fill="none" stroke="#000000" points="0,-293.5 106,-293.5 "/>
<text text-anchor="start" x="8" y="-278.3" font-family="Times,serif" font-size="14.00" fill="#000000">_layout</text>
<text text-anchor="start" x="8" y="-263.3" font-family="Times,serif" font-size="14.00" fill="#000000">set_todo</text>
<text text-anchor="start" x="8" y="-248.3" font-family="Times,serif" font-size="14.00" fill="#000000">todo_params</text>
</g>
</g>
</svg>
