<?xml version="1.0" encoding="UTF-8" standalone="no"?>
<!DOCTYPE svg PUBLIC "-//W3C//DTD SVG 1.1//EN"
 "http://www.w3.org/Graphics/SVG/1.1/DTD/svg11.dtd">
<!-- Generated by graphviz version 2.40.1 (20161225.0304)
 -->
<!-- Title: models_diagram Pages: 1 -->
<svg width="766pt" height="491pt"
 viewBox="0.00 0.00 766.00 491.00" xmlns="http://www.w3.org/2000/svg" xmlns:xlink="http://www.w3.org/1999/xlink">
<g id="graph0" class="graph" transform="scale(1 1) rotate(0) translate(4 487)">
<title>models_diagram</title>
<polygon fill="transparent" stroke="transparent" points="-4,4 -4,-487 762,-487 762,4 -4,4"/>
<!-- _diagram_info -->
<g id="node1" class="node">
<title>_diagram_info</title>
<text text-anchor="start" x="8" y="-424.1" font-family="Times,serif" font-size="13.00" fill="#000000">Models diagram</text>
<text text-anchor="start" x="8" y="-410.1" font-family="Times,serif" font-size="13.00" fill="#000000">Date: Feb 08 2019 &#45; 20:17</text>
<text text-anchor="start" x="8" y="-396.1" font-family="Times,serif" font-size="13.00" fill="#000000">Migration version: 20190203204103</text>
<text text-anchor="start" x="8" y="-382.1" font-family="Times,serif" font-size="13.00" fill="#000000">Generated by RailRoady 1.5.3</text>
<text text-anchor="start" x="8" y="-368.1" font-family="Times,serif" font-size="13.00" fill="#000000">http://railroady.prestonlee.com</text>
</g>
<!-- ApplicationRecord -->
<g id="node2" class="node">
<title>ApplicationRecord</title>
<ellipse fill="none" stroke="#000000" cx="309" cy="-399.5" rx="77.1866" ry="18"/>
<text text-anchor="middle" x="309" y="-395.8" font-family="Times,serif" font-size="14.00" fill="#000000">ApplicationRecord</text>
</g>
<!-- User -->
<g id="node3" class="node">
<title>User</title>
<path fill="none" stroke="#000000" d="M416.5,-316.5C416.5,-316.5 705.5,-316.5 705.5,-316.5 711.5,-316.5 717.5,-322.5 717.5,-328.5 717.5,-328.5 717.5,-470.5 717.5,-470.5 717.5,-476.5 711.5,-482.5 705.5,-482.5 705.5,-482.5 416.5,-482.5 416.5,-482.5 410.5,-482.5 404.5,-476.5 404.5,-470.5 404.5,-470.5 404.5,-328.5 404.5,-328.5 404.5,-322.5 410.5,-316.5 416.5,-316.5"/>
<text text-anchor="middle" x="561" y="-467.3" font-family="Times,serif" font-size="14.00" fill="#000000">User</text>
<polyline fill="none" stroke="#000000" points="404.5,-459.5 717.5,-459.5 "/>
<text text-anchor="start" x="412.5" y="-444.3" font-family="Times,serif" font-size="14.00" fill="#000000">id :bigint</text>
<text text-anchor="start" x="412.5" y="-429.3" font-family="Times,serif" font-size="14.00" fill="#000000">email :character varying</text>
<text text-anchor="start" x="412.5" y="-414.3" font-family="Times,serif" font-size="14.00" fill="#000000">encrypted_password :character varying</text>
<text text-anchor="start" x="412.5" y="-399.3" font-family="Times,serif" font-size="14.00" fill="#000000">reset_password_token :character varying</text>
<text text-anchor="start" x="412.5" y="-384.3" font-family="Times,serif" font-size="14.00" fill="#000000">reset_password_sent_at :timestamp without time zone</text>
<text text-anchor="start" x="412.5" y="-369.3" font-family="Times,serif" font-size="14.00" fill="#000000">remember_created_at :timestamp without time zone</text>
<text text-anchor="start" x="412.5" y="-354.3" font-family="Times,serif" font-size="14.00" fill="#000000">created_at :timestamp without time zone</text>
<text text-anchor="start" x="412.5" y="-339.3" font-family="Times,serif" font-size="14.00" fill="#000000">updated_at :timestamp without time zone</text>
<text text-anchor="start" x="412.5" y="-324.3" font-family="Times,serif" font-size="14.00" fill="#000000">avatar_photo :character varying</text>
</g>
<!-- Todo -->
<g id="node4" class="node">
<title>Todo</title>
<path fill="none" stroke="#000000" d="M451,-.5C451,-.5 671,-.5 671,-.5 677,-.5 683,-6.5 683,-12.5 683,-12.5 683,-124.5 683,-124.5 683,-130.5 677,-136.5 671,-136.5 671,-136.5 451,-136.5 451,-136.5 445,-136.5 439,-130.5 439,-124.5 439,-124.5 439,-12.5 439,-12.5 439,-6.5 445,-.5 451,-.5"/>
<text text-anchor="middle" x="561" y="-121.3" font-family="Times,serif" font-size="14.00" fill="#000000">Todo</text>
<polyline fill="none" stroke="#000000" points="439,-113.5 683,-113.5 "/>
<text text-anchor="start" x="447" y="-98.3" font-family="Times,serif" font-size="14.00" fill="#000000">id :bigint</text>
<text text-anchor="start" x="447" y="-83.3" font-family="Times,serif" font-size="14.00" fill="#000000">user_id :bigint</text>
<text text-anchor="start" x="447" y="-68.3" font-family="Times,serif" font-size="14.00" fill="#000000">task_id :bigint</text>
<text text-anchor="start" x="447" y="-53.3" font-family="Times,serif" font-size="14.00" fill="#000000">done :boolean</text>
<text text-anchor="start" x="447" y="-38.3" font-family="Times,serif" font-size="14.00" fill="#000000">done_at :timestamp without time zone</text>
<text text-anchor="start" x="447" y="-23.3" font-family="Times,serif" font-size="14.00" fill="#000000">created_at :timestamp without time zone</text>
<text text-anchor="start" x="447" y="-8.3" font-family="Times,serif" font-size="14.00" fill="#000000">updated_at :timestamp without time zone</text>
</g>
<!-- User&#45;&gt;Todo -->
<g id="edge1" class="edge">
<title>User&#45;&gt;Todo</title>
<path fill="none" stroke="#808d78" d="M513.561,-308.6924C510.089,-299.1966 507.122,-289.5291 505,-280 494.6631,-233.5815 493.4203,-219.1242 505,-173 507.2877,-163.8877 510.5399,-154.7027 514.3399,-145.7606"/>
<ellipse fill="none" stroke="#808d78" cx="515.0226" cy="-312.5275" rx="4" ry="4"/>
<polygon fill="#808d78" stroke="#808d78" points="514.3827,-145.665 522.5855,-138.3873 516.4317,-141.1041 518.4807,-136.5432 518.4807,-136.5432 518.4807,-136.5432 516.4317,-141.1041 514.3759,-134.6991 514.3827,-145.665 514.3827,-145.665"/>
</g>
<!-- Task -->
<g id="node5" class="node">
<title>Task</title>
<path fill="none" stroke="#000000" d="M526,-173.5C526,-173.5 746,-173.5 746,-173.5 752,-173.5 758,-179.5 758,-185.5 758,-185.5 758,-267.5 758,-267.5 758,-273.5 752,-279.5 746,-279.5 746,-279.5 526,-279.5 526,-279.5 520,-279.5 514,-273.5 514,-267.5 514,-267.5 514,-185.5 514,-185.5 514,-179.5 520,-173.5 526,-173.5"/>
<text text-anchor="middle" x="636" y="-264.3" font-family="Times,serif" font-size="14.00" fill="#000000">Task</text>
<polyline fill="none" stroke="#000000" points="514,-256.5 758,-256.5 "/>
<text text-anchor="start" x="522" y="-241.3" font-family="Times,serif" font-size="14.00" fill="#000000">id :bigint</text>
<text text-anchor="start" x="522" y="-226.3" font-family="Times,serif" font-size="14.00" fill="#000000">name :character varying</text>
<text text-anchor="start" x="522" y="-211.3" font-family="Times,serif" font-size="14.00" fill="#000000">photo :character varying</text>
<text text-anchor="start" x="522" y="-196.3" font-family="Times,serif" font-size="14.00" fill="#000000">created_at :timestamp without time zone</text>
<text text-anchor="start" x="522" y="-181.3" font-family="Times,serif" font-size="14.00" fill="#000000">updated_at :timestamp without time zone</text>
</g>
<!-- User&#45;&gt;Task -->
<g id="edge2" class="edge">
<title>User&#45;&gt;Task</title>
<path fill="none" stroke="#e02d00" d="M601.1254,-306.9442C603.7178,-300.9644 606.2933,-295.0234 608.8022,-289.2363"/>
<polygon fill="#e02d00" stroke="#e02d00" points="601.0497,-307.1188 592.9434,-314.5038 599.0609,-311.7063 597.0721,-316.2937 597.0721,-316.2937 597.0721,-316.2937 599.0609,-311.7063 601.2008,-318.0837 601.0497,-307.1188 601.0497,-307.1188"/>
<polygon fill="#e02d00" stroke="#e02d00" points="608.9751,-288.8374 617.0814,-281.4524 610.9639,-284.2499 612.9527,-279.6625 612.9527,-279.6625 612.9527,-279.6625 610.9639,-284.2499 608.824,-277.8725 608.9751,-288.8374 608.9751,-288.8374"/>
</g>
<!-- Task&#45;&gt;Todo -->
<g id="edge3" class="edge">
<title>Task&#45;&gt;Todo</title>
<path fill="none" stroke="#3f433b" d="M607.348,-166.1398C604.1915,-159.4901 600.9463,-152.6535 597.709,-145.8336"/>
<ellipse fill="none" stroke="#3f433b" cx="609.1021" cy="-169.8352" rx="4" ry="4"/>
<polygon fill="#3f433b" stroke="#3f433b" points="597.5967,-145.5969 597.3736,-134.6333 595.4525,-141.0799 593.3084,-136.563 593.3084,-136.563 593.3084,-136.563 595.4525,-141.0799 589.2431,-138.4927 597.5967,-145.5969 597.5967,-145.5969"/>
</g>
</g>
</svg>
