<?xml version="1.0" encoding="UTF-8" standalone="no"?>
<!DOCTYPE svg PUBLIC "-//W3C//DTD SVG 1.1//EN"
 "http://www.w3.org/Graphics/SVG/1.1/DTD/svg11.dtd">
<!-- Generated by graphviz version 2.40.1 (20161225.0304)
 -->
<!-- Title: models_diagram Pages: 1 -->
<svg width="496pt" height="230pt"
 viewBox="0.00 0.00 495.95 230.00" xmlns="http://www.w3.org/2000/svg" xmlns:xlink="http://www.w3.org/1999/xlink">
<g id="graph0" class="graph" transform="scale(1 1) rotate(0) translate(4 226)">
<title>models_diagram</title>
<polygon fill="transparent" stroke="transparent" points="-4,4 -4,-226 491.9475,-226 491.9475,4 -4,4"/>
<!-- _diagram_info -->
<g id="node1" class="node">
<title>_diagram_info</title>
<text text-anchor="start" x="8" y="-207.6" font-family="Times,serif" font-size="13.00" fill="#000000">Models diagram</text>
<text text-anchor="start" x="8" y="-193.6" font-family="Times,serif" font-size="13.00" fill="#000000">Date: Feb 08 2019 &#45; 20:17</text>
<text text-anchor="start" x="8" y="-179.6" font-family="Times,serif" font-size="13.00" fill="#000000">Migration version: 20190203204103</text>
<text text-anchor="start" x="8" y="-165.6" font-family="Times,serif" font-size="13.00" fill="#000000">Generated by RailRoady 1.5.3</text>
<text text-anchor="start" x="8" y="-151.6" font-family="Times,serif" font-size="13.00" fill="#000000">http://railroady.prestonlee.com</text>
</g>
<!-- ApplicationRecord -->
<g id="node2" class="node">
<title>ApplicationRecord</title>
<ellipse fill="none" stroke="#000000" cx="309" cy="-183" rx="77.1866" ry="18"/>
<text text-anchor="middle" x="309" y="-179.3" font-family="Times,serif" font-size="14.00" fill="#000000">ApplicationRecord</text>
</g>
<!-- User -->
<g id="node3" class="node">
<title>User</title>
<ellipse fill="none" stroke="#000000" cx="432" cy="-183" rx="27.0966" ry="18"/>
<text text-anchor="middle" x="432" y="-179.3" font-family="Times,serif" font-size="14.00" fill="#000000">User</text>
</g>
<!-- Todo -->
<g id="node4" class="node">
<title>Todo</title>
<ellipse fill="none" stroke="#000000" cx="432" cy="-18" rx="29.4969" ry="18"/>
<text text-anchor="middle" x="432" y="-14.3" font-family="Times,serif" font-size="14.00" fill="#000000">Todo</text>
</g>
<!-- User&#45;&gt;Todo -->
<g id="edge1" class="edge">
<title>User&#45;&gt;Todo</title>
<path fill="none" stroke="#e6d2c2" d="M427.4675,-156.8664C424.1438,-134.3716 420.5961,-101.0453 423,-72 423.7055,-63.4753 425.0273,-54.2703 426.4449,-45.917"/>
<ellipse fill="none" stroke="#e6d2c2" cx="428.1044" cy="-160.9732" rx="4" ry="4"/>
<polygon fill="#e6d2c2" stroke="#e6d2c2" points="426.4754,-45.7478 432.6809,-36.7067 427.364,-40.8274 428.2526,-35.9069 428.2526,-35.9069 428.2526,-35.9069 427.364,-40.8274 423.8242,-35.1072 426.4754,-45.7478 426.4754,-45.7478"/>
</g>
<!-- Task -->
<g id="node5" class="node">
<title>Task</title>
<ellipse fill="none" stroke="#000000" cx="460" cy="-90" rx="27.8951" ry="18"/>
<text text-anchor="middle" x="460" y="-86.3" font-family="Times,serif" font-size="14.00" fill="#000000">Task</text>
</g>
<!-- User&#45;&gt;Task -->
<g id="edge2" class="edge">
<title>User&#45;&gt;Task</title>
<path fill="none" stroke="#fcc420" d="M440.4045,-155.0851C443.9701,-143.2421 448.1154,-129.4739 451.6726,-117.6589"/>
<polygon fill="#fcc420" stroke="#fcc420" points="440.2817,-155.4932 433.0897,-163.7713 438.8402,-160.281 437.3987,-165.0687 437.3987,-165.0687 437.3987,-165.0687 438.8402,-160.281 441.7076,-166.366 440.2817,-155.4932 440.2817,-155.4932"/>
<polygon fill="#fcc420" stroke="#fcc420" points="451.7349,-117.4517 458.9268,-109.1736 453.1764,-112.664 454.6179,-107.8763 454.6179,-107.8763 454.6179,-107.8763 453.1764,-112.664 450.3089,-106.5789 451.7349,-117.4517 451.7349,-117.4517"/>
</g>
<!-- Task&#45;&gt;Todo -->
<g id="edge3" class="edge">
<title>Task&#45;&gt;Todo</title>
<path fill="none" stroke="#d44c3e" d="M450.0796,-64.4903C447.6389,-58.2144 445.0171,-51.4724 442.548,-45.1233"/>
<ellipse fill="none" stroke="#d44c3e" cx="451.6288" cy="-68.4742" rx="4" ry="4"/>
<polygon fill="#d44c3e" stroke="#d44c3e" points="442.4663,-44.9131 443.0358,-33.962 440.654,-40.2531 438.8417,-35.593 438.8417,-35.593 438.8417,-35.593 440.654,-40.2531 434.6477,-37.2241 442.4663,-44.9131 442.4663,-44.9131"/>
</g>
</g>
</svg>
